<?xml version="1.0" encoding="utf-8"?>
<!-- Generator: Adobe Illustrator 21.1.0, SVG Export Plug-In . SVG Version: 6.00 Build 0)  -->
<svg version="1.1" id="Layer_1" xmlns="http://www.w3.org/2000/svg" xmlns:xlink="http://www.w3.org/1999/xlink" x="0px" y="0px"
	 viewBox="0 0 1500 1500" style="enable-background:new 0 0 1500 1500;" xml:space="preserve">
<style type="text/css">
	.st0{fill:none;stroke:#61DBFB;stroke-width:24;stroke-miterlimit:10;}
	.st1{fill:#61DBFB;stroke:#61DBFB;stroke-miterlimit:10;}
</style>
<g>
	<path class="st0" d="M949.5,551.2c130.9,130.9,233.6,271.2,293.7,394.4c72.4,148.5,82.7,274,30.5,326.2
		c-54.4,54.4-187.6,43.6-345.4-35.7c-119.4-60-252.9-162.4-377.1-286.6C423.9,822.1,317.8,686.9,258.2,565.3
		c-75.5-153.9-82.6-285-29.2-338.4c51.8-51.8,173.8-44.1,320.6,26.8C673.6,313.6,817.4,419,949.5,551.2z"/>
	<path class="st0" d="M677.3,478.3c178.7-48,351.7-66.9,488.4-57.4c164.8,11.4,278.7,65.2,297.8,136.5
		c19.9,74.3-55.9,184.3-203.5,281.4c-111.6,73.4-267,137.9-436.7,183.4c-173.9,46.7-344,71-479.2,62
		C173.1,1072.8,56,1013.4,36.5,940.5c-19-70.7,48.6-172.6,183.4-264.3C333.8,598.6,496.9,526.8,677.3,478.3z"/>
	<path class="st0" d="M478.2,677.7c47.7-178.8,117.6-338.1,194.2-451.8c92.2-137.1,195.7-208.8,267-189.8
		c74.3,19.8,131.7,140.5,142.2,316.8c7.9,133.3-13.9,300.2-59.2,469.9c-46.4,174-110.2,333.5-185.6,446.1
		c-95.4,142.5-205.3,214.3-278.2,194.8c-70.7-18.9-125.2-128.3-137.4-290.9C410.9,1035.5,430.1,858.3,478.2,677.7z"/>
	<path class="st1" d="M751.7,885.6c-2.8,0-5.2-1-7.1-2.9l-100.8-97.2c-1.1-0.9-2.6-2.3-4.4-4.2c-1.9-1.9-4.9-5.5-9-10.6
		c-4.1-5.1-7.8-10.4-11-15.7s-6.1-11.9-8.6-19.5c-2.5-7.6-3.8-15.1-3.8-22.3c0-23.7,6.8-42.2,20.5-55.6c13.7-13.4,32.6-20,56.7-20
		c6.7,0,13.5,1.2,20.4,3.5c6.9,2.3,13.4,5.4,19.4,9.4c6,3.9,11.1,7.6,15.4,11.1c4.3,3.4,8.4,7.1,12.3,11c3.9-3.9,8-7.5,12.3-11
		c4.3-3.4,9.4-7.1,15.4-11.1c6-3.9,12.4-7.1,19.4-9.4c6.9-2.3,13.8-3.5,20.4-3.5c24.1,0,43,6.7,56.7,20
		c13.7,13.4,20.5,31.9,20.5,55.6c0,23.8-12.3,48-37,72.7l-100.6,96.9C756.9,884.6,754.5,885.6,751.7,885.6z"/>
</g>
</svg>
